<svg width="481" height="160" viewBox="0 0 481 160" fill="none" xmlns="http://www.w3.org/2000/svg">
<path d="M10.0333 56.2333C9.25556 52.1889 9.8 48.2222 11.6667 44.3333C13.6889 40.2889 16.8 36.7111 21 33.6C26.1333 29.8667 32.0444 27.2222 38.7333 25.6667C39.8222 25.5111 41.1444 25.3556 42.7 25.2C44.4111 25.0444 46.1222 24.9667 47.8333 24.9667C49.5444 24.9667 51.1778 25.0444 52.7333 25.2C54.4444 25.3556 55.7667 25.5111 56.7 25.6667C59.8111 26.2889 61.5222 26.9889 61.8333 27.7667C61.8333 27.7667 61.6 27.6889 61.1333 27.5333C60.2 27.0667 58.8 26.6778 56.9333 26.3667C55.0667 26.0556 53.0444 25.9 50.8667 25.9C48.8444 25.9 46.6667 26.0556 44.3333 26.3667C42.1556 26.6778 40.2111 27.0667 38.5 27.5333C34.4556 28.7778 30.7222 30.4111 27.3 32.4333C24.0333 34.4556 21.2333 36.8667 18.9 39.6667C16.5667 42.3111 14.7778 45.1889 13.5333 48.3C12.4444 51.2556 12.1333 54.2111 12.6 57.1667C13.3778 61.9889 15.7889 65.5667 19.8333 67.9C23.8778 70.2333 29.9444 71.5556 38.0333 71.8667L41.0667 72.1L42.2333 67.9C43.0111 65.1 43.7889 62.8444 44.5667 61.1333C45.3444 59.2667 46.5111 56.8556 48.0667 53.9C52.5778 44.7222 58.8778 36.0889 66.9667 28C74.5889 20.3778 82.4444 14.3889 90.5333 10.0333C98.6222 5.67778 106.556 3.26666 114.333 2.8C114.8 2.64444 115.422 2.56666 116.2 2.56666C121.022 2.87778 124.833 4.12222 127.633 6.29999C128.411 7.07778 129.111 8.08889 129.733 9.33333C130.356 10.5778 130.744 11.8222 130.9 13.0667C131.056 15.4 130.511 18.2 129.267 21.4667C128.178 24.7333 126.467 28.0778 124.133 31.5C121.8 34.9222 119 38.3444 115.733 41.7667C112.622 45.1889 109.2 48.3 105.467 51.1C88.5111 63.8556 69.9222 71.1667 49.7 73.0333C49.0778 73.0333 48.4556 73.1111 47.8333 73.2667C47.3667 73.2667 46.9778 73.2667 46.6667 73.2667H45.2667C44.9556 73.5778 44.6444 74.8222 44.3333 77C44.0222 79.1778 43.8667 81.1222 43.8667 82.8333C43.4 92.3222 46.9778 98 54.6 99.8667C58.1778 100.8 62.5333 100.489 67.6667 98.9333C72.9556 97.2222 78.4778 94.4222 84.2333 90.5333C86.7222 88.9778 88.9778 87.4222 91 85.8667C93.1778 84.3111 95.2778 82.6778 97.3 80.9667C99.3222 79.1 101.5 77.0778 103.833 74.9C106.167 72.7222 108.811 70.0778 111.767 66.9667C114.878 63.7 117.211 61.2111 118.767 59.5C120.478 57.7889 121.722 56.2333 122.5 54.8333C123.744 53.2778 125.144 51.5667 126.7 49.7C128.256 47.6778 129.189 46.6667 129.5 46.6667C129.656 46.6667 129.967 46.9 130.433 47.3667C130.744 47.6778 130.589 48.3 129.967 49.2333C128.256 51.8778 125.767 56.2333 122.5 62.3C119.233 68.3667 115.5 75.6778 111.3 84.2333C108.656 89.5222 106.322 94.1111 104.3 98C102.278 101.889 100.256 105.389 98.2333 108.5C97.6111 109.589 97.0667 110.444 96.6 111.067C96.1333 111.844 95.9 112.311 95.9 112.467C96.0556 112.778 96.3667 113.011 96.8333 113.167C97.1444 113.478 97.5333 113.633 98 113.633C98.4667 113.789 98.9333 114.022 99.4 114.333C105 117.289 108.267 121.022 109.2 125.533C109.511 126.933 109.667 128.256 109.667 129.5C109.822 130.744 109.744 131.367 109.433 131.367C109.122 131.367 108.967 131.133 108.967 130.667C108.967 130.356 108.811 129.344 108.5 127.633C107.567 122.033 104.222 117.911 98.4667 115.267C98 114.956 97.5333 114.722 97.0667 114.567C96.7556 114.411 96.4444 114.256 96.1333 114.1C95.6667 113.944 95.3556 113.789 95.2 113.633C94.8889 113.944 94.5778 114.333 94.2667 114.8C93.9556 115.111 93.5667 115.5 93.1 115.967C92.7889 116.589 92.4778 117.211 92.1667 117.833C87.9667 123.744 83.3 129.189 78.1667 134.167C73.0333 139.3 67.9 143.578 62.7667 147C52.8111 153.689 43.0889 157.5 33.6 158.433C32.3556 158.589 31.2667 158.667 30.3333 158.667C29.5556 158.667 29.0889 158.667 28.9333 158.667H27.7667C26.6778 158.667 25.8222 158.589 25.2 158.433C18.6667 157.967 13.4556 155.944 9.56667 152.367C5.67778 148.633 4.27778 143.889 5.36667 138.133C6.3 132.844 8.94444 128.1 13.3 123.9C17.0333 120.322 21.3889 117.367 26.3667 115.033C31.5 112.856 37.6444 110.989 44.8 109.433C46.9778 108.967 48.9222 108.578 50.6333 108.267C52.3444 108.111 53.9778 107.956 55.5333 107.8C57.2444 107.644 58.9556 107.489 60.6667 107.333C62.5333 107.333 64.6333 107.333 66.9667 107.333C72.2556 107.333 76.4556 107.489 79.5667 107.8C82.8333 108.267 86.2556 109.044 89.8333 110.133C90.4556 110.289 91.1556 109.744 91.9333 108.5C95.2 103.367 99.5556 95.5111 105 84.9333C106.556 81.9778 107.878 79.4889 108.967 77.4667C110.056 75.4444 110.989 73.7333 111.767 72.3333C112.544 70.9333 113.244 69.6889 113.867 68.6C114.489 67.5111 115.189 66.4222 115.967 65.3333C116.122 65.0222 116.278 64.7111 116.433 64.4C116.744 64.0889 116.978 63.7778 117.133 63.4667C117.289 63.1556 117.444 62.9222 117.6 62.7667C117.444 62.7667 116.978 63.1556 116.2 63.9333C115.422 64.7111 114.411 65.7222 113.167 66.9667C102.9 77.5444 94.1111 85.4778 86.8 90.7667C79.4889 96.0556 72.4889 99.6333 65.8 101.5C59.8889 102.9 54.6778 102.511 50.1667 100.333C45.6556 98.1556 42.6222 94.5 41.0667 89.3667C40.2889 87.3444 39.9 84.7778 39.9 81.6667C39.9 78.5556 40.2111 75.9889 40.8333 73.9667C40.9889 73.5 40.2889 73.2667 38.7333 73.2667C37.0222 73.2667 34.8444 73.1111 32.2 72.8C29.5556 72.4889 27.3778 72.1 25.6667 71.6333C16.6444 69.3 11.4333 64.1667 10.0333 56.2333ZM80.9667 124.6C81.7444 123.511 82.6778 122.189 83.7667 120.633C84.8556 119.233 85.8667 117.833 86.8 116.433C87.7333 115.189 88.4333 114.022 88.9 112.933C89.5222 112 89.8333 111.533 89.8333 111.533C89.6778 111.378 88.5111 111.067 86.3333 110.6C84.3111 110.133 82.4444 109.744 80.7333 109.433C79.0222 109.122 76.9222 108.889 74.4333 108.733C72.1 108.733 69.6889 108.733 67.2 108.733C65.6444 108.733 64.1667 108.733 62.7667 108.733C61.3667 108.733 60.1222 108.811 59.0333 108.967C54.3667 109.278 49.6222 109.9 44.8 110.833C39.9778 111.922 35.7778 113.167 32.2 114.567C27.5333 116.278 23.3333 118.378 19.6 120.867C15.8667 123.511 12.9111 126.311 10.7333 129.267C8.71111 132.378 7.38889 135.567 6.76667 138.833C6.3 142.1 6.61111 145.056 7.7 147.7C8.94444 150.189 10.9667 152.211 13.7667 153.767C16.5667 155.478 19.9889 156.489 24.0333 156.8C25.2778 156.956 27.2222 156.956 29.8667 156.8C32.6667 156.644 34.7667 156.411 36.1667 156.1C38.3444 155.789 40.3667 155.244 42.2333 154.467C44.1 153.844 46.3556 152.911 49 151.667C54.7556 148.711 60.4333 144.9 66.0333 140.233C71.6333 135.567 76.6111 130.356 80.9667 124.6ZM45.5 71.8667L48.7667 71.6333C49.7 71.6333 50.9444 71.5556 52.5 71.4C54.0556 71.2444 55.5333 71.0111 56.9333 70.7C73.8889 68.2111 89.7556 61.4444 104.533 50.4C108.111 47.7556 111.378 44.8778 114.333 41.7667C117.444 38.6556 120.089 35.4667 122.267 32.2C124.444 28.9333 126.156 25.8222 127.4 22.8667C128.8 19.7556 129.5 16.8778 129.5 14.2333C129.5 11.1222 128.333 8.71111 126 7C124.133 5.6 121.411 4.9 117.833 4.9C115.811 4.9 113.556 5.13333 111.067 5.59999C104.844 6.84444 98.4667 9.48889 91.9333 13.5333C85.4 17.5778 79.1778 22.4778 73.2667 28.2333C67.3556 33.8333 62.0667 40.0556 57.4 46.9C52.7333 53.7444 49.2333 60.6667 46.9 67.6667L45.5 71.8667Z" fill="#4E5F7B"/>
<path d="M264.551 118.91L265.234 127.27H264.551C263.861 125.186 262.969 123.617 261.875 122.562C260.299 121.039 258.275 120.277 255.801 120.277C252.428 120.277 249.863 121.612 248.105 124.281C246.634 126.534 245.898 129.216 245.898 132.328C245.898 134.854 246.387 137.159 247.363 139.242C248.34 141.326 249.616 142.855 251.191 143.832C252.78 144.796 254.408 145.277 256.074 145.277C257.051 145.277 257.995 145.154 258.906 144.906C259.818 144.659 260.697 144.294 261.543 143.812V136.156C261.543 134.828 261.439 133.962 261.23 133.559C261.035 133.142 260.723 132.829 260.293 132.621C259.876 132.4 259.134 132.289 258.066 132.289V131.547H268.32V132.289H267.832C266.816 132.289 266.12 132.628 265.742 133.305C265.482 133.786 265.352 134.737 265.352 136.156V144.262C263.854 145.069 262.376 145.661 260.918 146.039C259.46 146.417 257.839 146.605 256.055 146.605C250.938 146.605 247.051 144.965 244.395 141.684C242.402 139.223 241.406 136.384 241.406 133.168C241.406 130.837 241.966 128.604 243.086 126.469C244.414 123.93 246.237 121.977 248.555 120.609C250.495 119.477 252.786 118.91 255.43 118.91C256.393 118.91 257.266 118.988 258.047 119.145C258.841 119.301 259.961 119.646 261.406 120.18C262.135 120.453 262.624 120.59 262.871 120.59C263.118 120.59 263.327 120.479 263.496 120.258C263.678 120.023 263.789 119.574 263.828 118.91H264.551ZM287.207 137.133H276.953L275.156 141.312C274.714 142.341 274.492 143.109 274.492 143.617C274.492 144.021 274.681 144.379 275.059 144.691C275.449 144.991 276.283 145.186 277.559 145.277V146H269.219V145.277C270.326 145.082 271.042 144.828 271.367 144.516C272.031 143.891 272.767 142.621 273.574 140.707L282.891 118.91H283.574L292.793 140.941C293.535 142.712 294.206 143.865 294.805 144.398C295.417 144.919 296.263 145.212 297.344 145.277V146H286.895V145.277C287.949 145.225 288.659 145.049 289.023 144.75C289.401 144.451 289.59 144.086 289.59 143.656C289.59 143.083 289.329 142.178 288.809 140.941L287.207 137.133ZM286.66 135.688L282.168 124.984L277.559 135.688H286.66ZM324.844 146H317.773L308.809 133.617C308.145 133.643 307.604 133.656 307.188 133.656C307.018 133.656 306.836 133.656 306.641 133.656C306.445 133.643 306.243 133.63 306.035 133.617V141.312C306.035 142.979 306.217 144.014 306.582 144.418C307.077 144.991 307.819 145.277 308.809 145.277H309.844V146H298.496V145.277H299.492C300.612 145.277 301.413 144.913 301.895 144.184C302.168 143.78 302.305 142.823 302.305 141.312V124.203C302.305 122.536 302.122 121.501 301.758 121.098C301.25 120.525 300.495 120.238 299.492 120.238H298.496V119.516H308.145C310.957 119.516 313.027 119.724 314.355 120.141C315.697 120.544 316.829 121.299 317.754 122.406C318.691 123.5 319.16 124.809 319.16 126.332C319.16 127.96 318.626 129.372 317.559 130.57C316.504 131.768 314.863 132.615 312.637 133.109L318.105 140.707C319.355 142.452 320.43 143.611 321.328 144.184C322.227 144.757 323.398 145.121 324.844 145.277V146ZM306.035 132.387C306.283 132.387 306.497 132.393 306.68 132.406C306.862 132.406 307.012 132.406 307.129 132.406C309.655 132.406 311.556 131.859 312.832 130.766C314.121 129.672 314.766 128.279 314.766 126.586C314.766 124.932 314.245 123.591 313.203 122.562C312.174 121.521 310.807 121 309.102 121C308.346 121 307.324 121.124 306.035 121.371V132.387ZM325.176 146V145.277H326.172C327.292 145.277 328.086 144.919 328.555 144.203C328.841 143.773 328.984 142.81 328.984 141.312V124.203C328.984 122.549 328.802 121.514 328.438 121.098C327.93 120.525 327.174 120.238 326.172 120.238H325.176V119.516H335.957C339.915 119.516 342.923 119.965 344.98 120.863C347.051 121.762 348.711 123.259 349.961 125.355C351.224 127.452 351.855 129.874 351.855 132.621C351.855 136.306 350.736 139.385 348.496 141.859C345.983 144.62 342.155 146 337.012 146H325.176ZM332.734 144.086C334.388 144.451 335.775 144.633 336.895 144.633C339.915 144.633 342.422 143.572 344.414 141.449C346.406 139.327 347.402 136.449 347.402 132.816C347.402 129.158 346.406 126.273 344.414 124.164C342.422 122.055 339.863 121 336.738 121C335.566 121 334.232 121.189 332.734 121.566V144.086ZM361.758 120.961V131.43H367.578C369.089 131.43 370.098 131.202 370.605 130.746C371.283 130.147 371.66 129.092 371.738 127.582H372.461V136.801H371.738C371.556 135.512 371.374 134.685 371.191 134.32C370.957 133.865 370.573 133.507 370.039 133.246C369.505 132.986 368.685 132.855 367.578 132.855H361.758V141.586C361.758 142.758 361.81 143.474 361.914 143.734C362.018 143.982 362.201 144.184 362.461 144.34C362.721 144.483 363.216 144.555 363.945 144.555H368.438C369.935 144.555 371.022 144.451 371.699 144.242C372.376 144.034 373.027 143.624 373.652 143.012C374.46 142.204 375.286 140.987 376.133 139.359H376.914L374.629 146H354.219V145.277H355.156C355.781 145.277 356.374 145.128 356.934 144.828C357.35 144.62 357.63 144.307 357.773 143.891C357.93 143.474 358.008 142.621 358.008 141.332V124.125C358.008 122.445 357.839 121.41 357.5 121.02C357.031 120.499 356.25 120.238 355.156 120.238H354.219V119.516H374.629L374.922 125.316H374.16C373.887 123.923 373.581 122.966 373.242 122.445C372.917 121.924 372.428 121.527 371.777 121.254C371.257 121.059 370.339 120.961 369.023 120.961H361.758ZM377.324 119.516H384.512L400.703 139.379V124.105C400.703 122.478 400.521 121.462 400.156 121.059C399.674 120.512 398.913 120.238 397.871 120.238H396.953V119.516H406.172V120.238H405.234C404.115 120.238 403.32 120.577 402.852 121.254C402.565 121.671 402.422 122.621 402.422 124.105V146.43H401.719L384.258 125.102V141.41C384.258 143.038 384.434 144.053 384.785 144.457C385.28 145.004 386.042 145.277 387.07 145.277H388.008V146H378.789V145.277H379.707C380.84 145.277 381.641 144.939 382.109 144.262C382.396 143.845 382.539 142.895 382.539 141.41V122.992C381.771 122.094 381.185 121.501 380.781 121.215C380.391 120.928 379.811 120.661 379.043 120.414C378.665 120.297 378.092 120.238 377.324 120.238V119.516ZM415.117 120.961V131.43H420.938C422.448 131.43 423.457 131.202 423.965 130.746C424.642 130.147 425.02 129.092 425.098 127.582H425.82V136.801H425.098C424.915 135.512 424.733 134.685 424.551 134.32C424.316 133.865 423.932 133.507 423.398 133.246C422.865 132.986 422.044 132.855 420.938 132.855H415.117V141.586C415.117 142.758 415.169 143.474 415.273 143.734C415.378 143.982 415.56 144.184 415.82 144.34C416.081 144.483 416.576 144.555 417.305 144.555H421.797C423.294 144.555 424.382 144.451 425.059 144.242C425.736 144.034 426.387 143.624 427.012 143.012C427.819 142.204 428.646 140.987 429.492 139.359H430.273L427.988 146H407.578V145.277H408.516C409.141 145.277 409.733 145.128 410.293 144.828C410.71 144.62 410.99 144.307 411.133 143.891C411.289 143.474 411.367 142.621 411.367 141.332V124.125C411.367 122.445 411.198 121.41 410.859 121.02C410.391 120.499 409.609 120.238 408.516 120.238H407.578V119.516H427.988L428.281 125.316H427.52C427.246 123.923 426.94 122.966 426.602 122.445C426.276 121.924 425.788 121.527 425.137 121.254C424.616 121.059 423.698 120.961 422.383 120.961H415.117ZM458.242 146H451.172L442.207 133.617C441.543 133.643 441.003 133.656 440.586 133.656C440.417 133.656 440.234 133.656 440.039 133.656C439.844 133.643 439.642 133.63 439.434 133.617V141.312C439.434 142.979 439.616 144.014 439.98 144.418C440.475 144.991 441.217 145.277 442.207 145.277H443.242V146H431.895V145.277H432.891C434.01 145.277 434.811 144.913 435.293 144.184C435.566 143.78 435.703 142.823 435.703 141.312V124.203C435.703 122.536 435.521 121.501 435.156 121.098C434.648 120.525 433.893 120.238 432.891 120.238H431.895V119.516H441.543C444.355 119.516 446.426 119.724 447.754 120.141C449.095 120.544 450.228 121.299 451.152 122.406C452.09 123.5 452.559 124.809 452.559 126.332C452.559 127.96 452.025 129.372 450.957 130.57C449.902 131.768 448.262 132.615 446.035 133.109L451.504 140.707C452.754 142.452 453.828 143.611 454.727 144.184C455.625 144.757 456.797 145.121 458.242 145.277V146ZM439.434 132.387C439.681 132.387 439.896 132.393 440.078 132.406C440.26 132.406 440.41 132.406 440.527 132.406C443.053 132.406 444.954 131.859 446.23 130.766C447.52 129.672 448.164 128.279 448.164 126.586C448.164 124.932 447.643 123.591 446.602 122.562C445.573 121.521 444.206 121 442.5 121C441.745 121 440.723 121.124 439.434 121.371V132.387ZM476.23 118.91V128.07H475.508C475.273 126.312 474.85 124.913 474.238 123.871C473.639 122.829 472.78 122.003 471.66 121.391C470.54 120.779 469.382 120.473 468.184 120.473C466.829 120.473 465.71 120.889 464.824 121.723C463.939 122.543 463.496 123.48 463.496 124.535C463.496 125.342 463.776 126.078 464.336 126.742C465.143 127.719 467.064 129.021 470.098 130.648C472.572 131.977 474.258 132.999 475.156 133.715C476.068 134.418 476.764 135.251 477.246 136.215C477.741 137.178 477.988 138.188 477.988 139.242C477.988 141.247 477.207 142.979 475.645 144.438C474.095 145.883 472.096 146.605 469.648 146.605C468.88 146.605 468.158 146.547 467.48 146.43C467.077 146.365 466.237 146.13 464.961 145.727C463.698 145.31 462.897 145.102 462.559 145.102C462.233 145.102 461.973 145.199 461.777 145.395C461.595 145.59 461.458 145.993 461.367 146.605H460.645V137.523H461.367C461.706 139.424 462.161 140.85 462.734 141.801C463.307 142.738 464.18 143.52 465.352 144.145C466.536 144.77 467.832 145.082 469.238 145.082C470.866 145.082 472.148 144.652 473.086 143.793C474.036 142.934 474.512 141.918 474.512 140.746C474.512 140.095 474.329 139.438 473.965 138.773C473.613 138.109 473.06 137.491 472.305 136.918C471.797 136.527 470.41 135.701 468.145 134.438C465.879 133.161 464.264 132.146 463.301 131.391C462.35 130.635 461.628 129.802 461.133 128.891C460.638 127.979 460.391 126.977 460.391 125.883C460.391 123.982 461.12 122.348 462.578 120.98C464.036 119.6 465.892 118.91 468.145 118.91C469.551 118.91 471.042 119.255 472.617 119.945C473.346 120.271 473.861 120.434 474.16 120.434C474.499 120.434 474.772 120.336 474.98 120.141C475.202 119.932 475.378 119.522 475.508 118.91H476.23Z" fill="#4E5F7B"/>
<path d="M12.0333 57.2333C11.2556 53.1889 11.8 49.2222 13.6667 45.3333C15.6889 41.2889 18.8 37.7111 23 34.6C28.1333 30.8667 34.0444 28.2222 40.7333 26.6667C41.8222 26.5111 43.1444 26.3556 44.7 26.2C46.4111 26.0444 48.1222 25.9667 49.8333 25.9667C51.5444 25.9667 53.1778 26.0444 54.7333 26.2C56.4444 26.3556 57.7667 26.5111 58.7 26.6667C61.8111 27.2889 63.5222 27.9889 63.8333 28.7667C63.8333 28.7667 63.6 28.6889 63.1333 28.5333C62.2 28.0667 60.8 27.6778 58.9333 27.3667C57.0667 27.0556 55.0444 26.9 52.8667 26.9C50.8444 26.9 48.6667 27.0556 46.3333 27.3667C44.1556 27.6778 42.2111 28.0667 40.5 28.5333C36.4556 29.7778 32.7222 31.4111 29.3 33.4333C26.0333 35.4556 23.2333 37.8667 20.9 40.6667C18.5667 43.3111 16.7778 46.1889 15.5333 49.3C14.4444 52.2556 14.1333 55.2111 14.6 58.1667C15.3778 62.9889 17.7889 66.5667 21.8333 68.9C25.8778 71.2333 31.9444 72.5556 40.0333 72.8667L43.0667 73.1L44.2333 68.9C45.0111 66.1 45.7889 63.8444 46.5667 62.1333C47.3444 60.2667 48.5111 57.8556 50.0667 54.9C54.5778 45.7222 60.8778 37.0889 68.9667 29C76.5889 21.3778 84.4444 15.3889 92.5333 11.0333C100.622 6.67778 108.556 4.26666 116.333 3.8C116.8 3.64444 117.422 3.56666 118.2 3.56666C123.022 3.87778 126.833 5.12222 129.633 7.29999C130.411 8.07778 131.111 9.08889 131.733 10.3333C132.356 11.5778 132.744 12.8222 132.9 14.0667C133.056 16.4 132.511 19.2 131.267 22.4667C130.178 25.7333 128.467 29.0778 126.133 32.5C123.8 35.9222 121 39.3444 117.733 42.7667C114.622 46.1889 111.2 49.3 107.467 52.1C90.5111 64.8556 71.9222 72.1667 51.7 74.0333C51.0778 74.0333 50.4556 74.1111 49.8333 74.2667C49.3667 74.2667 48.9778 74.2667 48.6667 74.2667H47.2667C46.9556 74.5778 46.6444 75.8222 46.3333 78C46.0222 80.1778 45.8667 82.1222 45.8667 83.8333C45.4 93.3222 48.9778 99 56.6 100.867C60.1778 101.8 64.5333 101.489 69.6667 99.9333C74.9556 98.2222 80.4778 95.4222 86.2333 91.5333C88.7222 89.9778 90.9778 88.4222 93 86.8667C95.1778 85.3111 97.2778 83.6778 99.3 81.9667C101.322 80.1 103.5 78.0778 105.833 75.9C108.167 73.7222 110.811 71.0778 113.767 67.9667C116.878 64.7 119.211 62.2111 120.767 60.5C122.478 58.7889 123.722 57.2333 124.5 55.8333C125.744 54.2778 127.144 52.5667 128.7 50.7C130.256 48.6778 131.189 47.6667 131.5 47.6667C131.656 47.6667 131.967 47.9 132.433 48.3667C132.744 48.6778 132.589 49.3 131.967 50.2333C130.256 52.8778 127.767 57.2333 124.5 63.3C121.233 69.3667 117.5 76.6778 113.3 85.2333C110.656 90.5222 108.322 95.1111 106.3 99C104.278 102.889 102.256 106.389 100.233 109.5C99.6111 110.589 99.0667 111.444 98.6 112.067C98.1333 112.844 97.9 113.311 97.9 113.467C98.0556 113.778 98.3667 114.011 98.8333 114.167C99.1444 114.478 99.5333 114.633 100 114.633C100.467 114.789 100.933 115.022 101.4 115.333C107 118.289 110.267 122.022 111.2 126.533C111.511 127.933 111.667 129.256 111.667 130.5C111.822 131.744 111.744 132.367 111.433 132.367C111.122 132.367 110.967 132.133 110.967 131.667C110.967 131.356 110.811 130.344 110.5 128.633C109.567 123.033 106.222 118.911 100.467 116.267C100 115.956 99.5333 115.722 99.0667 115.567C98.7556 115.411 98.4444 115.256 98.1333 115.1C97.6667 114.944 97.3556 114.789 97.2 114.633C96.8889 114.944 96.5778 115.333 96.2667 115.8C95.9556 116.111 95.5667 116.5 95.1 116.967C94.7889 117.589 94.4778 118.211 94.1667 118.833C89.9667 124.744 85.3 130.189 80.1667 135.167C75.0333 140.3 69.9 144.578 64.7667 148C54.8111 154.689 45.0889 158.5 35.6 159.433C34.3556 159.589 33.2667 159.667 32.3333 159.667C31.5556 159.667 31.0889 159.667 30.9333 159.667H29.7667C28.6778 159.667 27.8222 159.589 27.2 159.433C20.6667 158.967 15.4556 156.944 11.5667 153.367C7.67778 149.633 6.27778 144.889 7.36667 139.133C8.3 133.844 10.9444 129.1 15.3 124.9C19.0333 121.322 23.3889 118.367 28.3667 116.033C33.5 113.856 39.6444 111.989 46.8 110.433C48.9778 109.967 50.9222 109.578 52.6333 109.267C54.3444 109.111 55.9778 108.956 57.5333 108.8C59.2444 108.644 60.9556 108.489 62.6667 108.333C64.5333 108.333 66.6333 108.333 68.9667 108.333C74.2556 108.333 78.4556 108.489 81.5667 108.8C84.8333 109.267 88.2556 110.044 91.8333 111.133C92.4556 111.289 93.1556 110.744 93.9333 109.5C97.2 104.367 101.556 96.5111 107 85.9333C108.556 82.9778 109.878 80.4889 110.967 78.4667C112.056 76.4444 112.989 74.7333 113.767 73.3333C114.544 71.9333 115.244 70.6889 115.867 69.6C116.489 68.5111 117.189 67.4222 117.967 66.3333C118.122 66.0222 118.278 65.7111 118.433 65.4C118.744 65.0889 118.978 64.7778 119.133 64.4667C119.289 64.1556 119.444 63.9222 119.6 63.7667C119.444 63.7667 118.978 64.1556 118.2 64.9333C117.422 65.7111 116.411 66.7222 115.167 67.9667C104.9 78.5444 96.1111 86.4778 88.8 91.7667C81.4889 97.0556 74.4889 100.633 67.8 102.5C61.8889 103.9 56.6778 103.511 52.1667 101.333C47.6556 99.1556 44.6222 95.5 43.0667 90.3667C42.2889 88.3444 41.9 85.7778 41.9 82.6667C41.9 79.5556 42.2111 76.9889 42.8333 74.9667C42.9889 74.5 42.2889 74.2667 40.7333 74.2667C39.0222 74.2667 36.8444 74.1111 34.2 73.8C31.5556 73.4889 29.3778 73.1 27.6667 72.6333C18.6444 70.3 13.4333 65.1667 12.0333 57.2333ZM82.9667 125.6C83.7444 124.511 84.6778 123.189 85.7667 121.633C86.8556 120.233 87.8667 118.833 88.8 117.433C89.7333 116.189 90.4333 115.022 90.9 113.933C91.5222 113 91.8333 112.533 91.8333 112.533C91.6778 112.378 90.5111 112.067 88.3333 111.6C86.3111 111.133 84.4444 110.744 82.7333 110.433C81.0222 110.122 78.9222 109.889 76.4333 109.733C74.1 109.733 71.6889 109.733 69.2 109.733C67.6444 109.733 66.1667 109.733 64.7667 109.733C63.3667 109.733 62.1222 109.811 61.0333 109.967C56.3667 110.278 51.6222 110.9 46.8 111.833C41.9778 112.922 37.7778 114.167 34.2 115.567C29.5333 117.278 25.3333 119.378 21.6 121.867C17.8667 124.511 14.9111 127.311 12.7333 130.267C10.7111 133.378 9.38889 136.567 8.76667 139.833C8.3 143.1 8.61111 146.056 9.7 148.7C10.9444 151.189 12.9667 153.211 15.7667 154.767C18.5667 156.478 21.9889 157.489 26.0333 157.8C27.2778 157.956 29.2222 157.956 31.8667 157.8C34.6667 157.644 36.7667 157.411 38.1667 157.1C40.3444 156.789 42.3667 156.244 44.2333 155.467C46.1 154.844 48.3556 153.911 51 152.667C56.7556 149.711 62.4333 145.9 68.0333 141.233C73.6333 136.567 78.6111 131.356 82.9667 125.6ZM47.5 72.8667L50.7667 72.6333C51.7 72.6333 52.9444 72.5556 54.5 72.4C56.0556 72.2444 57.5333 72.0111 58.9333 71.7C75.8889 69.2111 91.7556 62.4444 106.533 51.4C110.111 48.7556 113.378 45.8778 116.333 42.7667C119.444 39.6556 122.089 36.4667 124.267 33.2C126.444 29.9333 128.156 26.8222 129.4 23.8667C130.8 20.7556 131.5 17.8778 131.5 15.2333C131.5 12.1222 130.333 9.71111 128 8C126.133 6.6 123.411 5.9 119.833 5.9C117.811 5.9 115.556 6.13333 113.067 6.59999C106.844 7.84444 100.467 10.4889 93.9333 14.5333C87.4 18.5778 81.1778 23.4778 75.2667 29.2333C69.3556 34.8333 64.0667 41.0556 59.4 47.9C54.7333 54.7444 51.2333 61.6667 48.9 68.6667L47.5 72.8667ZM168.54 67.5C169.007 67.0333 169.318 66.8778 169.473 67.0333C169.629 67.0333 168.618 68.7444 166.44 72.1667C160.995 79.7889 156.018 86.2444 151.507 91.5333C147.151 96.8222 143.651 100.478 141.007 102.5C139.451 103.744 137.74 104.678 135.873 105.3C134.162 105.767 132.684 105.844 131.44 105.533C130.195 105.222 128.795 104.367 127.24 102.967C125.684 101.567 124.829 99.3889 124.673 96.4333C124.518 93.4778 124.907 90.2889 125.84 86.8667C126.773 83.2889 128.329 79.7111 130.507 76.1333C132.529 72.4 134.94 69.0556 137.74 66.1C141.007 62.6778 144.273 60.3444 147.54 59.1C149.095 58.6333 150.107 58.4 150.573 58.4C150.729 58.4 151.273 58.5556 152.207 58.8667C154.073 59.3333 154.929 61.0444 154.773 64C154.618 65.5556 154.384 66.8 154.073 67.7333C153.918 68.5111 153.218 69.8333 151.973 71.7C150.107 74.8111 147.773 77.3778 144.973 79.4C142.329 81.4222 139.607 82.5889 136.807 82.9C136.029 82.9 135.329 82.9778 134.707 83.1333C134.084 83.1333 133.695 83.0556 133.54 82.9C132.918 82.7444 131.984 84.9222 130.74 89.4333C129.962 91.7667 129.573 94.1 129.573 96.4333C129.573 98.6111 129.884 100.322 130.507 101.567C131.284 102.967 132.451 103.667 134.007 103.667C135.562 103.667 137.662 102.733 140.307 100.867C143.107 98.8444 145.673 96.5111 148.007 93.8667C149.407 92.4667 151.04 90.6 152.907 88.2667C154.929 85.7778 156.873 83.2889 158.74 80.8C160.762 78.1556 162.629 75.6667 164.34 73.3333C166.207 70.8444 167.607 68.9 168.54 67.5ZM138.673 72.6333C137.429 74.3444 136.262 76.2111 135.173 78.2333C134.24 80.1 133.773 81.1889 133.773 81.5C133.773 81.8111 134.318 81.8889 135.407 81.7333C136.651 81.5778 137.895 81.2667 139.14 80.8C140.851 80.1778 142.562 79.0889 144.273 77.5333C146.14 75.9778 147.773 74.3444 149.173 72.6333C150.573 70.7667 151.662 68.9 152.44 67.0333C153.218 65.1667 153.529 63.6111 153.373 62.3667C153.062 60.9667 152.595 60.2667 151.973 60.2667C151.818 60.2667 151.584 60.3444 151.273 60.5C150.962 60.6556 150.573 60.8111 150.107 60.9667C148.707 61.7444 146.762 63.3778 144.273 65.8667C141.784 68.3556 139.918 70.6111 138.673 72.6333ZM183.202 57.9333C185.846 59.0222 187.168 61.5111 187.168 65.4C187.324 69.2889 186.157 74.1889 183.668 80.1C182.579 82.5889 182.035 84.0667 182.035 84.5333C182.035 84.8444 182.502 84.9222 183.435 84.7667C187.635 84.1444 193.002 79.7889 199.535 71.7C201.713 69.0556 202.957 67.5778 203.268 67.2667C203.579 66.8 203.813 66.6444 203.968 66.8C204.124 66.9556 203.89 67.5 203.268 68.4333C202.646 69.3667 201.868 70.4556 200.935 71.7C200.002 72.7889 198.99 73.9556 197.902 75.2C196.813 76.4444 195.802 77.5333 194.868 78.4667C189.579 83.7556 185.302 86.4 182.035 86.4C181.413 86.4 180.946 86.5556 180.635 86.8667C180.479 87.1778 180.013 88.0333 179.235 89.4333C176.435 94.1 173.246 98.1444 169.668 101.567C166.246 104.833 163.446 106.467 161.268 106.467C160.957 106.467 160.49 106.389 159.868 106.233C159.246 106.233 158.779 106.078 158.468 105.767C156.757 104.833 155.513 103.511 154.735 101.8C154.735 101.489 154.735 101.022 154.735 100.4C154.579 99.7778 154.424 99.0778 154.268 98.3C154.113 95.9667 154.424 93.3222 155.202 90.3667C155.824 87.2556 156.835 84.1444 158.235 81.0333C159.635 77.9222 161.346 74.8889 163.368 71.9333C165.39 68.9778 167.568 66.3333 169.902 64C171.924 61.8222 173.635 60.3444 175.035 59.5667C176.435 58.6333 177.913 58.0111 179.468 57.7C180.09 57.5444 180.79 57.4667 181.568 57.4667C181.724 57.4667 182.268 57.6222 183.202 57.9333ZM181.335 73.8C181.957 73.1778 182.346 72.8667 182.502 72.8667C182.813 72.7111 183.279 72.6333 183.902 72.6333L185.068 72.8667L185.535 70.7667C185.846 69.3667 186.002 67.7333 186.002 65.8667C186.002 64 185.846 62.6778 185.535 61.9C185.068 60.0333 184.213 59.1 182.968 59.1C182.19 59.1 181.179 59.4889 179.935 60.2667C178.69 60.8889 177.446 61.8222 176.202 63.0667C174.024 65.0889 171.846 67.5778 169.668 70.5333C167.646 73.4889 165.779 76.6 164.068 79.8667C162.513 82.9778 161.268 86.1667 160.335 89.4333C159.246 92.7 158.624 95.7333 158.468 98.5333C158.157 101.644 158.468 103.511 159.402 104.133C160.335 104.756 162.124 104.444 164.768 103.2C166.79 102.111 169.124 100.167 171.768 97.3667C174.413 94.5667 176.59 91.6889 178.302 88.7333L179.935 85.7L179.002 85.4667C177.757 84.6889 177.29 83.2889 177.602 81.2667C177.757 80.1778 178.224 78.9333 179.002 77.5333C179.779 75.9778 180.557 74.7333 181.335 73.8ZM205.352 68.4333C203.485 67.0333 202.552 65.6333 202.552 64.2333C202.552 63.6111 202.863 62.7556 203.485 61.6667C204.263 60.4222 205.118 59.2556 206.052 58.1667C206.674 57.3889 207.063 56.9222 207.218 56.7667C207.53 56.4556 208.074 56.4556 208.852 56.7667C209.63 57.2333 210.018 57.7 210.018 58.1667C210.018 58.3222 209.785 58.7889 209.318 59.5667C208.852 60.3444 208.307 61.2 207.685 62.1333C207.063 63.0667 206.518 63.9222 206.052 64.7C205.585 65.3222 205.352 65.7889 205.352 66.1C205.352 66.7222 206.285 67.8111 208.152 69.3667C209.707 71.0778 210.563 72.3222 210.718 73.1C211.03 73.7222 210.874 74.7333 210.252 76.1333C209.785 77.2222 208.774 79.1667 207.218 81.9667C205.818 84.7667 204.574 87.1 203.485 88.9667C201.774 91.6111 200.452 94.1778 199.518 96.6667C198.585 99 197.963 101.1 197.652 102.967C197.652 104.056 197.73 104.678 197.885 104.833C197.885 104.989 198.041 105.067 198.352 105.067C198.974 105.067 199.83 104.678 200.918 103.9C203.874 102.189 207.452 98.6111 211.652 93.1667C216.007 87.5667 220.207 81.2667 224.252 74.2667C225.963 71 227.052 68.9778 227.518 68.2C228.141 67.4222 228.607 67.0333 228.918 67.0333C229.074 67.0333 229.152 67.1111 229.152 67.2667C229.152 67.4222 228.685 68.3556 227.752 70.0667C226.818 71.6222 225.73 73.4111 224.485 75.4333C223.396 77.4556 222.385 79.3222 221.452 81.0333C220.518 82.7444 219.974 83.6778 219.818 83.8333C219.663 84.1444 219.352 84.5333 218.885 85C218.574 85.4667 218.185 86.0889 217.718 86.8667C216.941 88.2667 215.774 89.9778 214.218 92C212.663 93.8667 211.03 95.8111 209.318 97.8333C207.607 99.8556 205.974 101.644 204.418 103.2C202.863 104.756 201.696 105.767 200.918 106.233C198.896 107.322 197.263 107.4 196.018 106.467C194.93 105.844 194.307 104.756 194.152 103.2C193.996 101.489 194.23 99.4667 194.852 97.1333C195.474 94.8 196.485 92.2333 197.885 89.4333C199.13 86.6333 200.763 83.6778 202.785 80.5667C203.718 79.1667 204.574 77.8444 205.352 76.6C206.13 75.2 206.674 74.2667 206.985 73.8C207.452 72.8667 207.685 72.3222 207.685 72.1667C207.841 71.8556 207.763 71.3889 207.452 70.7667C207.141 70.4556 206.752 70.0667 206.285 69.6C205.974 69.1333 205.663 68.7444 205.352 68.4333ZM269.105 67.9667C269.882 67.1889 270.349 66.9556 270.505 67.2667C270.816 67.5778 270.116 68.7444 268.405 70.7667C266.849 72.7889 264.594 75.2778 261.638 78.2333C258.994 80.8778 256.349 83.4444 253.705 85.9333C251.06 88.2667 247.949 90.8333 244.371 93.6333L239.471 97.3667L236.438 104.6C233.638 110.822 230.916 116.189 228.271 120.7C225.782 125.367 223.371 129.333 221.038 132.6C218.705 135.867 216.371 138.511 214.038 140.533C211.549 142.711 208.982 144.422 206.338 145.667C205.094 146.133 203.694 146.444 202.138 146.6C200.582 146.756 199.26 146.678 198.171 146.367C195.994 145.589 194.36 144.189 193.271 142.167C192.182 140.3 191.794 138.122 192.105 135.633C192.416 133.922 193.116 132.211 194.205 130.5C195.138 128.789 196.771 126.767 199.105 124.433C200.194 123.344 201.438 122.256 202.838 121.167C204.082 120.078 205.638 118.833 207.505 117.433C209.371 116.189 211.549 114.633 214.038 112.767C216.527 111.056 219.638 109.033 223.371 106.7C226.016 104.989 228.271 103.511 230.138 102.267C232.005 101.022 233.016 100.322 233.171 100.167C233.327 99.8556 233.794 99 234.571 97.6C235.349 96.2 236.127 94.4111 236.905 92.2333C237.838 90.2111 238.771 88.3444 239.705 86.6333C240.638 84.7667 241.26 83.5222 241.571 82.9L242.505 80.5667C242.349 80.4111 241.96 80.7222 241.338 81.5C240.716 82.2778 240.016 83.2889 239.238 84.5333C235.194 89.9778 231.382 94.6444 227.805 98.5333C224.382 102.267 221.816 104.522 220.105 105.3C217.927 106.544 216.06 106.544 214.505 105.3C212.327 103.744 211.471 100.867 211.938 96.6667C212.249 92.3111 213.882 87.4889 216.838 82.2C218.86 78.4667 221.194 75.0444 223.838 71.9333C226.482 68.8222 229.205 66.1 232.005 63.7667C234.805 61.4333 237.605 59.6444 240.405 58.4C243.205 57 245.771 56.3 248.105 56.3C249.349 56.3 250.516 56.6111 251.605 57.2333C252.849 57.8556 253.782 58.5556 254.405 59.3333C254.871 59.9556 255.182 60.5 255.338 60.9667C255.494 61.2778 255.571 62.0556 255.571 63.3C255.727 64.7 255.649 66.1778 255.338 67.7333C255.027 69.2889 254.716 70.3 254.405 70.7667C254.094 71.0778 253.938 71.0778 253.938 70.7667C253.938 70.6111 253.938 70.2222 253.938 69.6C253.938 68.9778 254.016 68.2778 254.171 67.5C254.794 64.0778 254.327 61.5111 252.771 59.8C252.305 59.3333 251.916 59.0222 251.605 58.8667C251.294 58.7111 250.516 58.7111 249.271 58.8667C246.938 59.0222 244.216 60.1111 241.105 62.1333C238.149 64 235.116 66.4889 232.005 69.6C229.671 72.0889 227.416 74.9667 225.238 78.2333C223.216 81.3444 221.427 84.5333 219.871 87.8C218.316 90.9111 217.227 93.8667 216.605 96.6667C215.827 99.4667 215.671 101.644 216.138 103.2C216.449 104.444 218.005 104.133 220.805 102.267C223.449 100.4 226.638 97.3667 230.371 93.1667C231.46 91.9222 232.938 90.1333 234.805 87.8C236.671 85.4667 238.46 83.2111 240.171 81.0333C243.438 76.9889 245.46 74.6556 246.238 74.0333C247.171 73.2556 247.871 73.2556 248.338 74.0333C248.649 74.5 248.494 75.6667 247.871 77.5333C247.249 79.4 245.927 82.5889 243.905 87.1C243.127 89.2778 242.427 91.0667 241.805 92.4667C241.182 93.8667 240.949 94.5667 241.105 94.5667C241.26 94.5667 241.96 94.0222 243.205 92.9333C244.605 91.8444 246.16 90.6 247.871 89.2C249.738 87.6444 251.605 86.0889 253.471 84.5333C255.338 82.8222 256.738 81.5 257.671 80.5667C259.227 79.1667 261.094 77.2222 263.271 74.7333C265.605 72.0889 267.549 69.8333 269.105 67.9667ZM232.005 103.2C232.16 103.044 232.238 102.889 232.238 102.733C232.238 102.733 231.927 102.889 231.305 103.2C230.994 103.356 229.905 104.056 228.038 105.3C226.171 106.544 224.071 107.944 221.738 109.5C218.471 111.678 215.671 113.544 213.338 115.1C210.849 116.811 208.749 118.289 207.038 119.533C205.327 120.778 203.849 121.944 202.605 123.033C201.36 124.122 200.271 125.211 199.338 126.3C196.538 129.411 194.905 132.444 194.438 135.4C193.816 138.356 194.36 140.922 196.071 143.1C197.316 144.344 198.56 144.967 199.805 144.967C200.894 144.967 202.449 144.422 204.471 143.333C210.227 140.533 216.138 133.767 222.205 123.033C222.671 122.256 223.371 120.856 224.305 118.833C225.394 116.967 226.482 114.944 227.571 112.767C228.66 110.589 229.594 108.567 230.371 106.7C231.305 104.833 231.849 103.667 232.005 103.2ZM301.294 67.5C301.76 67.0333 302.072 66.8778 302.227 67.0333C302.383 67.0333 301.372 68.7444 299.194 72.1667C293.749 79.7889 288.772 86.2444 284.26 91.5333C279.905 96.8222 276.405 100.478 273.76 102.5C272.205 103.744 270.494 104.678 268.627 105.3C266.916 105.767 265.438 105.844 264.194 105.533C262.949 105.222 261.549 104.367 259.994 102.967C258.438 101.567 257.583 99.3889 257.427 96.4333C257.272 93.4778 257.66 90.2889 258.594 86.8667C259.527 83.2889 261.083 79.7111 263.26 76.1333C265.283 72.4 267.694 69.0556 270.494 66.1C273.76 62.6778 277.027 60.3444 280.294 59.1C281.849 58.6333 282.86 58.4 283.327 58.4C283.483 58.4 284.027 58.5556 284.96 58.8667C286.827 59.3333 287.683 61.0444 287.527 64C287.372 65.5556 287.138 66.8 286.827 67.7333C286.672 68.5111 285.972 69.8333 284.727 71.7C282.86 74.8111 280.527 77.3778 277.727 79.4C275.083 81.4222 272.36 82.5889 269.56 82.9C268.783 82.9 268.083 82.9778 267.46 83.1333C266.838 83.1333 266.449 83.0556 266.294 82.9C265.672 82.7444 264.738 84.9222 263.494 89.4333C262.716 91.7667 262.327 94.1 262.327 96.4333C262.327 98.6111 262.638 100.322 263.26 101.567C264.038 102.967 265.205 103.667 266.76 103.667C268.316 103.667 270.416 102.733 273.06 100.867C275.86 98.8444 278.427 96.5111 280.76 93.8667C282.16 92.4667 283.794 90.6 285.66 88.2667C287.683 85.7778 289.627 83.2889 291.494 80.8C293.516 78.1556 295.383 75.6667 297.094 73.3333C298.96 70.8444 300.36 68.9 301.294 67.5ZM271.427 72.6333C270.183 74.3444 269.016 76.2111 267.927 78.2333C266.994 80.1 266.527 81.1889 266.527 81.5C266.527 81.8111 267.072 81.8889 268.16 81.7333C269.405 81.5778 270.649 81.2667 271.894 80.8C273.605 80.1778 275.316 79.0889 277.027 77.5333C278.894 75.9778 280.527 74.3444 281.927 72.6333C283.327 70.7667 284.416 68.9 285.194 67.0333C285.972 65.1667 286.283 63.6111 286.127 62.3667C285.816 60.9667 285.349 60.2667 284.727 60.2667C284.572 60.2667 284.338 60.3444 284.027 60.5C283.716 60.6556 283.327 60.8111 282.86 60.9667C281.46 61.7444 279.516 63.3778 277.027 65.8667C274.538 68.3556 272.672 70.6111 271.427 72.6333ZM321.563 72.4C323.274 69.9111 324.441 68.3556 325.063 67.7333C325.685 67.1111 325.996 67.0333 325.996 67.5C325.996 67.6556 325.296 68.6667 323.896 70.5333C322.652 72.4 321.096 74.6556 319.229 77.3C317.363 79.9444 315.418 82.6667 313.396 85.4667C311.374 88.1111 309.663 90.3667 308.263 92.2333C305.774 95.5 303.285 98.4556 300.796 101.1C298.307 103.744 296.363 105.456 294.963 106.233C292.318 107.478 290.296 107.633 288.896 106.7C286.718 105.144 286.641 100.867 288.663 93.8667C290.685 86.8667 294.729 77.8444 300.796 66.8C301.729 65.2444 302.507 63.9222 303.129 62.8333C303.752 61.5889 304.141 60.8889 304.296 60.7333C304.296 60.4222 304.141 60.2667 303.829 60.2667C303.674 60.1111 302.974 60.0333 301.729 60.0333C300.485 59.8778 299.707 59.8 299.396 59.8C299.085 59.6444 298.929 59.4111 298.929 59.1C298.774 58.7889 298.852 58.6333 299.163 58.6333C299.629 58.6333 300.641 58.5556 302.196 58.4H305.463L307.796 54.6667C308.885 52.8 310.129 50.7778 311.529 48.6C312.929 46.2667 314.252 44.1667 315.496 42.3C316.896 40.2778 318.063 38.5667 318.996 37.1667C320.085 35.7667 320.785 34.9889 321.096 34.8333C321.563 34.5222 322.263 34.6778 323.196 35.3C324.285 35.7667 324.829 36.3111 324.829 36.9333C324.829 37.2444 324.441 38.0222 323.663 39.2667C323.041 40.5111 322.185 41.9889 321.096 43.7C319.385 46.3444 317.829 48.7556 316.429 50.9333C315.185 52.9556 314.018 54.8222 312.929 56.5333L311.996 57.7H315.963C317.518 57.5444 318.529 57.4667 318.996 57.4667C319.463 57.4667 319.696 57.6222 319.696 57.9333C319.696 58.2444 319.385 58.4778 318.763 58.6333C318.141 58.7889 316.741 58.9444 314.563 59.1L311.063 59.3333L308.029 64.4667C302.896 73.6444 298.852 81.6556 295.896 88.5C292.785 95.1889 291.074 100.089 290.763 103.2C290.607 104.756 290.918 105.533 291.696 105.533C293.407 105.222 295.818 103.511 298.929 100.4C302.196 97.1333 306.785 91.6111 312.696 83.8333C314.096 82.1222 315.652 80.1778 317.363 78C319.074 75.6667 320.474 73.8 321.563 72.4ZM341.385 57.9333C344.03 59.0222 345.352 61.5111 345.352 65.4C345.507 69.2889 344.341 74.1889 341.852 80.1C340.763 82.5889 340.218 84.0667 340.218 84.5333C340.218 84.8444 340.685 84.9222 341.618 84.7667C345.818 84.1444 351.185 79.7889 357.718 71.7C359.896 69.0556 361.141 67.5778 361.452 67.2667C361.763 66.8 361.996 66.6444 362.152 66.8C362.307 66.9556 362.074 67.5 361.452 68.4333C360.83 69.3667 360.052 70.4556 359.118 71.7C358.185 72.7889 357.174 73.9556 356.085 75.2C354.996 76.4444 353.985 77.5333 353.052 78.4667C347.763 83.7556 343.485 86.4 340.218 86.4C339.596 86.4 339.13 86.5556 338.818 86.8667C338.663 87.1778 338.196 88.0333 337.418 89.4333C334.618 94.1 331.43 98.1444 327.852 101.567C324.43 104.833 321.63 106.467 319.452 106.467C319.141 106.467 318.674 106.389 318.052 106.233C317.43 106.233 316.963 106.078 316.652 105.767C314.941 104.833 313.696 103.511 312.918 101.8C312.918 101.489 312.918 101.022 312.918 100.4C312.763 99.7778 312.607 99.0778 312.452 98.3C312.296 95.9667 312.607 93.3222 313.385 90.3667C314.007 87.2556 315.018 84.1444 316.418 81.0333C317.818 77.9222 319.53 74.8889 321.552 71.9333C323.574 68.9778 325.752 66.3333 328.085 64C330.107 61.8222 331.818 60.3444 333.218 59.5667C334.618 58.6333 336.096 58.0111 337.652 57.7C338.274 57.5444 338.974 57.4667 339.752 57.4667C339.907 57.4667 340.452 57.6222 341.385 57.9333ZM339.518 73.8C340.141 73.1778 340.53 72.8667 340.685 72.8667C340.996 72.7111 341.463 72.6333 342.085 72.6333L343.252 72.8667L343.718 70.7667C344.03 69.3667 344.185 67.7333 344.185 65.8667C344.185 64 344.03 62.6778 343.718 61.9C343.252 60.0333 342.396 59.1 341.152 59.1C340.374 59.1 339.363 59.4889 338.118 60.2667C336.874 60.8889 335.63 61.8222 334.385 63.0667C332.207 65.0889 330.03 67.5778 327.852 70.5333C325.83 73.4889 323.963 76.6 322.252 79.8667C320.696 82.9778 319.452 86.1667 318.518 89.4333C317.43 92.7 316.807 95.7333 316.652 98.5333C316.341 101.644 316.652 103.511 317.585 104.133C318.518 104.756 320.307 104.444 322.952 103.2C324.974 102.111 327.307 100.167 329.952 97.3667C332.596 94.5667 334.774 91.6889 336.485 88.7333L338.118 85.7L337.185 85.4667C335.941 84.6889 335.474 83.2889 335.785 81.2667C335.941 80.1778 336.407 78.9333 337.185 77.5333C337.963 75.9778 338.741 74.7333 339.518 73.8ZM365.635 106C365.169 105.533 364.702 104.833 364.235 103.9C363.769 102.656 363.613 100.789 363.769 98.3C364.08 95.6556 364.702 93.0889 365.635 90.6C365.947 89.6667 366.18 89.0444 366.335 88.7333C366.491 88.4222 366.569 88.1889 366.569 88.0333C366.413 88.0333 366.102 88.4222 365.635 89.2C365.169 89.9778 364.547 90.9889 363.769 92.2333C359.413 99.0778 356.069 103.2 353.735 104.6C352.335 105.378 350.935 105.533 349.535 105.067C348.135 104.444 347.202 103.356 346.735 101.8C346.269 100.4 346.347 98.3778 346.969 95.7333C347.435 93.0889 348.369 90.0556 349.769 86.6333C351.169 83.2111 352.958 79.6333 355.135 75.9C357.158 72.1667 359.491 68.4333 362.135 64.7C364.313 61.9 365.791 60.1111 366.569 59.3333C367.347 58.5556 368.124 58.1667 368.902 58.1667C370.613 58.1667 371.469 58.5556 371.469 59.3333C371.469 59.4889 370.924 60.3444 369.835 61.9C368.902 63.4556 367.735 65.2444 366.335 67.2667C362.291 73.3333 359.258 78.3889 357.235 82.4333C355.058 86.4778 353.269 90.6778 351.869 95.0333C351.247 96.7444 350.935 98.3778 350.935 99.9333C350.78 101.333 350.858 102.344 351.169 102.967C351.48 103.278 351.947 103.278 352.569 102.967C353.658 102.344 355.291 100.711 357.469 98.0667C359.802 95.2667 361.98 92.3889 364.002 89.4333C364.469 88.5 365.091 87.4889 365.869 86.4C366.647 85.1556 367.347 84.1444 367.969 83.3667C368.435 82.5889 369.058 81.5 369.835 80.1C370.769 78.5444 371.624 77.1444 372.402 75.9C373.18 74.6556 373.958 73.4111 374.735 72.1667C375.513 70.9222 376.135 69.9111 376.602 69.1333C377.069 68.3556 377.458 67.8111 377.769 67.5C378.08 67.1889 378.702 67.0333 379.635 67.0333C380.88 67.1889 381.424 67.6556 381.269 68.4333C381.269 69.0556 380.18 71.3111 378.002 75.2C374.58 81.2667 372.091 86.1667 370.535 89.9C368.98 93.6333 367.969 96.9 367.502 99.7C367.347 101.411 367.424 102.733 367.735 103.667C368.202 104.756 368.902 105.144 369.835 104.833C370.924 104.522 372.558 103.433 374.735 101.567C375.669 100.789 376.758 99.7 378.002 98.3C379.247 96.7444 380.491 95.1111 381.735 93.4C383.135 91.5333 384.38 89.6667 385.469 87.8C386.713 85.7778 387.724 83.9889 388.502 82.4333C389.28 80.8778 389.747 79.7889 389.902 79.1667C390.058 78.5444 390.135 77.7667 390.135 76.8333C390.135 75.9 390.291 74.7333 390.602 73.3333C391.069 71.7778 391.613 70.2222 392.235 68.6667C392.858 66.9556 393.558 65.4 394.335 64C395.113 62.4444 395.891 61.1222 396.669 60.0333C398.224 57.8556 399.702 57.0778 401.102 57.7C401.569 58.0111 401.491 58.8667 400.869 60.2667C400.402 61.5111 399.08 64.4667 396.902 69.1333C394.102 75.0444 392.78 78.2333 392.935 78.7C393.247 79.7889 394.258 80.4111 395.969 80.5667C397.68 80.5667 399.547 80.1 401.569 79.1667C402.969 78.3889 404.602 77.2222 406.469 75.6667C408.335 73.9556 410.202 72.0889 412.069 70.0667C412.847 68.9778 413.547 68.1222 414.169 67.5C414.791 66.8778 415.18 66.4889 415.335 66.3333C415.958 66.1778 415.647 66.9556 414.402 68.6667C413.158 70.2222 411.602 72.0111 409.735 74.0333C406.469 77.3 403.202 79.6333 399.935 81.0333C396.824 82.2778 394.258 82.2778 392.235 81.0333C391.769 80.5667 391.458 80.4889 391.302 80.8C386.013 89.9778 381.58 96.5889 378.002 100.633C374.424 104.678 371.235 106.7 368.435 106.7C367.191 106.7 366.258 106.467 365.635 106ZM417.009 70.5333C414.676 73.8 412.498 76.9889 410.476 80.1C408.609 83.2111 407.364 85.3889 406.742 86.6333C406.276 87.4111 406.198 87.6444 406.509 87.3333C406.82 87.0222 408.064 85.5444 410.242 82.9C414.287 77.9222 418.253 73.4889 422.142 69.6C426.031 65.5556 429.064 62.6 431.242 60.7333C432.331 59.8 433.498 59.0222 434.742 58.4C436.142 57.6222 437.387 57.2333 438.476 57.2333C439.564 57.0778 440.42 57.3111 441.042 57.9333C441.664 58.5556 441.898 59.7222 441.742 61.4333C441.742 62.6778 441.431 64.0778 440.809 65.6333C439.72 68.5889 436.298 74.5 430.542 83.3667C427.587 87.8778 425.487 91.3778 424.242 93.8667C422.998 96.2 421.987 98.2222 421.209 99.9333C418.564 107.556 421.209 107.711 429.142 100.4C431.009 98.8444 432.798 97.1333 434.509 95.2667C436.376 93.2444 439.331 89.9 443.376 85.2333C444.776 83.5222 445.942 82.1222 446.876 81.0333C447.809 79.7889 448.742 78.6222 449.676 77.5333C450.609 76.4444 451.542 75.2778 452.476 74.0333C453.564 72.7889 454.809 71.2333 456.209 69.3667C456.987 68.2778 457.687 67.5 458.309 67.0333C458.931 66.5667 459.242 66.4889 459.242 66.8C459.242 66.9556 458.62 67.8889 457.376 69.6C456.287 71.1556 455.12 72.6333 453.876 74.0333C453.409 74.8111 452.476 76.0556 451.076 77.7667C449.831 79.3222 448.353 81.1111 446.642 83.1333C445.087 85 443.531 86.8667 441.976 88.7333C440.42 90.6 439.098 92.0778 438.009 93.1667C435.831 95.6556 433.42 98.1444 430.776 100.633C428.287 102.967 426.42 104.6 425.176 105.533C422.531 107.4 420.353 107.789 418.642 106.7C416.776 105.611 416.231 103.122 417.009 99.2333C417.32 97.9889 418.253 95.7333 419.809 92.4667C421.52 89.2 423.231 86.2444 424.942 83.6C425.72 82.3556 426.731 80.6444 427.976 78.4667C429.376 76.2889 430.698 74.1889 431.942 72.1667C435.053 67.1889 437.076 63.7667 438.009 61.9C438.942 59.8778 439.02 58.7111 438.242 58.4C437.62 58.4 436.531 58.7889 434.976 59.5667C432.331 60.9667 428.52 64.2333 423.542 69.3667C418.564 74.3444 413.353 80.4111 407.909 87.5667C405.731 90.5222 404.176 92.7778 403.242 94.3333C402.153 95.8889 400.987 97.9111 399.742 100.4C399.12 101.644 398.576 102.733 398.109 103.667C397.642 104.6 397.331 105.222 397.176 105.533C396.709 105.844 396.087 106 395.309 106C394.376 106.156 393.753 106 393.442 105.533C393.131 105.222 393.131 104.444 393.442 103.2C393.598 102.578 394.142 101.333 395.076 99.4667C396.009 97.6 397.02 95.5778 398.109 93.4C399.198 91.0667 400.364 88.8111 401.609 86.6333C402.698 84.3 403.709 82.4333 404.642 81.0333C405.731 79.1667 407.053 77.0667 408.609 74.7333C410.164 72.2444 411.642 69.9111 413.042 67.7333C414.598 65.5556 415.998 63.6889 417.242 62.1333C418.487 60.5778 419.264 59.6444 419.576 59.3333C420.82 58.7111 421.753 59.0222 422.376 60.2667C422.531 60.5778 422.609 60.8889 422.609 61.2C422.609 61.5111 422.376 61.9778 421.909 62.6C421.598 63.2222 421.053 64.1556 420.276 65.4C419.498 66.6444 418.409 68.3556 417.009 70.5333Z" fill="#4E5F7B"/>
</svg>
