<svg width="227" height="273" viewBox="0 0 227 273" fill="none" xmlns="http://www.w3.org/2000/svg">
  <path 
    d="M108.634 62.6535C105.026 49.0535 97.6371 33.6534 83.6505 17.7467C79.7785 13.36 73.0892 12.9335 68.7012 16.7868C64.3092 20.6535 63.8785 27.3467 67.7398 31.7334C97.9158 66.0534 90.2158 95.8534 87.8598 102.68C66.9678 97.96 24.4625 93.0133 8.68916 125.693C-12.5762 169.733 10.9425 231.853 55.7665 267.08C73.6798 281.147 92.6665 265.04 98.2052 259.613C103.741 265.04 122.731 281.147 140.643 267.08C185.468 231.853 208.989 169.733 187.721 125.693C172.262 93.6666 131.133 97.7734 109.833 102.4C111.332 95.5067 112.451 85.5601 110.843 73.6667C112.531 71.4401 114.554 68.9335 117.021 66.1868C121.569 72.0535 131.044 80.9868 146.608 80.9868C146.609 80.9868 146.609 80.9868 146.609 80.9868C169.383 80.9868 195.776 61.2669 225.068 22.3735C225.565 21.7202 225.927 20.9866 226.216 20.2266C156.213 19.3066 117.398 53.8268 108.634 62.6535ZM221.204 8.89331C220.298 8.54664 198.778 0.373519 175.2 0.373519C142.352 0.373519 121.237 16.2267 114.661 45.28C133.26 31.0267 169.481 10.7467 224.499 11.1334C223.596 10.1601 222.476 9.38664 221.204 8.89331Z" 
    fill="#4e5f7b"
  />
</svg>
