<svg width="239" height="245" viewBox="0 0 239 245" fill="none" xmlns="http://www.w3.org/2000/svg">
  <path 
    d="M231.035 224.667C231.119 223.44 232.807 194.36 227.927 173.093C217.78 128.893 220.583 97.1867 223.488 74.2134H114.848C115.572 90.2934 115.764 112.987 113.08 134.707C110.992 151.6 102.759 153.28 74.5281 156.48C65.5294 157.507 55.3281 158.653 44.1921 160.88C2.68275 169.187 -1.77324 206.973 1.66676 225.787L2.90009 232.52C2.89609 232.6 2.87607 232.667 2.87607 232.747V238.333C2.87607 241.947 5.80007 244.867 9.40673 244.867H139.028C142.635 244.867 145.559 241.947 145.559 238.333V233.947H164.719V238.92C164.719 242.213 167.379 244.867 170.659 244.867H225.497C228.777 244.867 231.437 242.213 231.437 238.92V232.16C231.437 231.147 231.163 230.213 230.72 229.387L231.035 224.667ZM226.255 0.0933792H114.601C107.819 0.0933792 102.32 5.59999 102.32 12.3733V50.56C102.32 57.3467 107.819 62.84 114.601 62.84H226.255C233.037 62.84 238.535 57.3467 238.535 50.56V12.3733C238.535 5.59999 233.037 0.0933792 226.255 0.0933792Z" 
    fill="#4e5f7b"
  />
</svg>
