<svg width="186" height="273" viewBox="0 0 186 273" fill="none" xmlns="http://www.w3.org/2000/svg">
  <path 
    d="M110.04 74.4134C130.52 73.4934 146.853 66.9868 158.533 54.8934C175.307 37.5201 176.973 14.4267 177.107 7.84005C118.76 35.8267 111.027 65.8134 110.04 74.4134ZM168.893 251.267H162.04L168.173 168C167.667 168.027 167.147 168.08 166.627 168.08H19.3733C18.8399 168.08 18.3333 168.027 17.8133 168L23.0534 239.027H95.52C98.8667 239.027 101.56 241.733 101.56 245.08C101.56 248.413 98.8667 251.12 95.52 251.12H23.9466L23.96 251.267H17.0933C11.2533 251.267 6.52003 256 6.52003 261.84C6.52003 267.693 11.2533 272.427 17.0933 272.427H168.893C174.733 272.427 179.48 267.693 179.48 261.84C179.48 256 174.733 251.267 168.893 251.267ZM16.6133 14.0001C18.5199 34.8001 33.1199 73.2934 74.8399 74.9734C74.3199 67.5201 68.7466 39.2401 16.6133 14.0001ZM19.3733 155.987H166.627C173.187 155.987 178.693 151.027 179.387 144.493L184.987 112.6C185.787 105.013 179.84 98.4134 172.227 98.4134H100.2V74.4667C100.293 74.4667 100.653 34.9734 171.067 0.213363C169.147 0.133363 167.28 0.0934407 165.44 0.0934407C122.107 0.0934407 102.52 20.7067 93.6666 39.2134C91.9466 35.4134 89.6666 31.5735 86.5466 27.9201C74.6666 14.0668 55.2666 7.04005 28.8799 7.04005C27.3599 7.04005 25.7734 7.09336 24.1867 7.1467C77.64 34.1334 83.84 64.7068 84.36 74.5868C84.36 74.5868 84.3599 74.5734 84.3733 74.5734V98.4134H13.76C6.14667 98.4134 0.199976 105.027 0.999976 112.6L6.59998 144.493C7.29331 151.027 12.7999 155.987 19.3733 155.987Z" 
    fill="#4e5f7b"
  />
</svg>
