<svg width="298" height="245" viewBox="0 0 298 245" fill="none" xmlns="http://www.w3.org/2000/svg">
  <path 
    d="M294.907 4.50666C291.253 -0.400006 284.307 -1.41334 279.4 2.23999L245.36 27.5734C243.56 28.9067 242.213 30.76 241.493 32.8933L207.68 132.187L46.2666 167.36C65.6666 172.747 79.9733 190.507 79.9733 211.6C79.9733 219.067 78.1333 226.107 74.96 232.36H179.8C176.613 226.107 174.787 219.067 174.787 211.6C174.787 186.267 195.387 165.653 220.72 165.653C224.707 165.653 228.56 166.227 232.24 167.173L228.533 139.72L261.36 43.2933L292.64 20.0134C297.547 16.36 298.573 9.42666 294.907 4.50666ZM220.72 222.707C214.6 222.707 209.613 217.72 209.613 211.6C209.613 205.467 214.6 200.493 220.72 200.493C226.84 200.493 231.827 205.467 231.827 211.6C231.827 217.72 226.84 222.707 220.72 222.707ZM220.72 178.32C202.347 178.32 187.453 193.213 187.453 211.6C187.453 229.973 202.347 244.867 220.72 244.867C239.093 244.867 254 229.973 254 211.6C254 193.213 239.093 178.32 220.72 178.32ZM34.0267 222.707C27.9067 222.707 22.92 217.72 22.92 211.6C22.92 205.467 27.9067 200.493 34.0267 200.493C40.16 200.493 45.1333 205.467 45.1333 211.6C45.1333 217.72 40.16 222.707 34.0267 222.707ZM34.0267 178.32C15.6533 178.32 0.76001 193.213 0.76001 211.6C0.76001 229.973 15.6533 244.867 34.0267 244.867C52.4133 244.867 67.3066 229.973 67.3066 211.6C67.3066 193.213 52.4133 178.32 34.0267 178.32ZM179.973 125.253L170.64 88.5334C167.92 77.8267 155.827 72.5334 146.107 77.8L86.04 110.333C80.24 113.467 76.7866 119.68 77.1733 126.253L78.4267 147.387L179.973 125.253Z" 
    fill="#4e5f7b"
  />
</svg>
