<svg width="246" height="273" viewBox="0 0 246 273" fill="none" xmlns="http://www.w3.org/2000/svg">
  <path 
    d="M81.924 55.5202C81.8654 57.3469 81.776 59.0268 81.6253 60.6801C91.872 50.4668 104.841 42.1735 117.945 35.7202C111.261 30.7469 101.108 24.5069 87.7227 20.0535L77.5414 16.6668L79.376 27.2403C79.4 27.4136 82.2827 44.2135 81.924 55.5202ZM241.936 208.774C241.315 208.107 226.493 192.347 206.765 192.44C191.66 192.507 178.371 201.507 167.229 219.174C162.744 221.587 158.663 224.307 154.932 227.147C155.059 225.827 155.181 224.587 155.289 223.48C157.445 222.08 177.177 208.347 166.723 179.987L165.339 176.24L161.545 177.48C160.96 177.667 147.159 182.32 143.024 194.68C140.355 202.68 142.404 211.734 149.04 221.574C148.959 221.987 148.879 222.4 148.788 222.867C147.957 227.173 147.179 231.24 146.643 234.2C143.459 237.227 140.636 240.28 138.172 243.227V156.054C147.497 170.507 165.757 168.12 165.757 168.12C162.176 158.094 156.888 152.84 151.687 150.174C167.925 146.894 179 140.013 184.732 129.6C196.601 108.027 180.201 80.3869 178.417 77.5069C169.421 60.7469 179.503 36.8534 179.601 36.6267L184.003 26.4934L173.019 27.6934C150.641 30.1334 90.5387 50.5734 74.6107 86.6801C70.036 97.0401 63.9107 116.787 74.2387 132.627C79.9867 141.453 89.8387 147.334 103.608 150.254C98.4547 152.947 93.2347 158.2 89.6893 168.12C89.6893 168.12 106.395 170.267 116.005 157.787V211.667C109.149 203.88 99.7067 195.2 87.392 188.267C74.8693 167.64 59.864 157.16 42.7774 157.16C21.216 157.16 5.10138 174.467 4.42671 175.187L0.23999 179.76L4.6467 184.107C19.9854 199.254 36.752 206.933 54.4907 206.933C71.1467 206.933 83.008 199.933 85.644 198.227C90.6107 201.773 94.928 205.667 98.6494 209.6L96.4373 209.28C80.2626 206.933 68.1867 210.2 60.7093 218.867C50.8347 230.333 53.1693 246.827 53.2693 247.533L54.0013 252.427L58.9253 251.867C98.1213 247.48 100.8 215.04 100.825 214.72L100.999 212.187C108.755 221 113.569 229.653 116.005 234.693V272.707H138.172V266.48C140.417 262.107 145.46 253.36 153.715 244.44C155.267 244.893 156.867 245.387 158.488 245.96C159.365 251.694 163.544 265.787 183.539 269.587L186.699 270.173L187.413 267.054C187.512 266.6 189.835 256.04 184.005 248.133C179.891 242.56 172.917 239.867 163.424 240.107C162.221 239.507 161.007 238.96 159.785 238.454C162.629 235.894 165.743 233.387 169.165 231.054C173.189 233.347 183.092 238.08 196.249 238.027H196.251C212.48 237.947 227.797 230.853 241.772 216.933L245.783 212.933L241.936 208.774ZM127.671 31.2668C142.821 24.8002 157.227 20.7736 166.773 19.0403C166.765 18.0936 166.817 17.0935 166.963 16.0535L167.961 8.74678H160.589C159.299 8.74678 133.845 8.97355 117.901 24.1202C121.875 26.7069 125.115 29.1602 127.671 31.2668ZM127.305 6.52021C116.855 1.84021 106.588 0.906881 105.937 0.853548L100.088 0.360059L99.0867 6.14678C98.62 8.84011 98.104 11.3202 97.572 13.5869C101.884 15.3202 105.84 17.1867 109.417 19.0934C114.717 13.4534 120.991 9.41355 127.305 6.52021Z" 
    fill="#4e5f7b"
  />
</svg>
