<svg width="333" height="273" viewBox="0 0 333 273" fill="none" xmlns="http://www.w3.org/2000/svg">
  <path 
    d="M208.507 248.2C207.413 249.387 205.373 249.987 202.413 249.987C191.2 249.987 184.547 240.947 184.333 240.653L140.333 188.893C160.28 185.413 186.813 180.827 210.333 176.787V239.76L210.387 240.813C210.52 242.4 210.24 246.307 208.507 248.2ZM47.6266 251.667C39.1066 251.667 32.2132 244.773 32.2132 236.253C32.2132 227.747 39.1066 220.84 47.6266 220.84C56.1332 220.84 63.0399 227.747 63.0399 236.253C63.0399 244.773 56.1332 251.667 47.6266 251.667ZM317.453 94.4134H282.253C278.04 94.4134 274.227 96.1201 271.467 98.8801L249.24 108.267H7.74649C0.853153 108.267 -2.05351 117.053 3.47982 121.16L12.0533 127.52C53.5066 158.293 75.9199 174.933 88.5199 183.947C87.6266 184.893 86.7332 185.88 85.8266 186.947C83.3466 189.8 75.6265 197.267 67.1065 205.293C61.4665 201.733 54.7999 199.64 47.6266 199.64C27.3999 199.64 10.9999 216.04 10.9999 236.253C10.9999 256.48 27.3999 272.867 47.6266 272.867C67.8399 272.867 84.2266 256.48 84.2266 236.253C84.2266 230.987 83.0932 226 81.0932 221.467C89.6799 213.387 98.7066 204.707 101.987 200.907C106.987 195.107 108.253 194.64 113.146 194.64C117.906 194.64 120.693 198.613 120.707 198.613L167.173 253.373C169.573 256.56 181.813 271.347 202.413 271.347C214.013 271.347 220.8 266.48 224.453 262.4C232.107 253.853 231.92 242.493 231.68 239.307V172.08C232.2 171.64 232.667 171.16 233.053 170.587L233.893 169.32C244.6 153.12 256.533 135.213 261.226 128.387C261.826 127.507 262.6 126.8 263.52 126.267L268.813 123.187L272.76 121.52C275.373 123.613 278.64 124.92 282.253 124.92H317.453C325.88 124.92 332.707 118.093 332.707 109.667C332.707 101.24 325.88 94.4134 317.453 94.4134ZM36.5332 94.0534H239.026C245.573 94.0534 248.733 86.0401 243.946 81.5734L188.04 29.32C185.267 26.7334 180.973 26.7334 178.2 29.32L163.987 42.6134L121.88 3.25337C117.986 -0.373298 111.96 -0.373298 108.067 3.25337L29.6398 76.56C22.9332 82.8134 27.3599 94.0534 36.5332 94.0534Z" 
    fill="#4e5f7b"
  />
</svg>
